<?xml version="1.0" ?><!DOCTYPE svg  PUBLIC '-//W3C//DTD SVG 1.1//EN'  'http://www.w3.org/Graphics/SVG/1.1/DTD/svg11.dtd'><svg enable-background="new 0 0 60 51" height="51px" id="Layer_1" version="1.1" viewBox="0 0 60 51" width="60px" xml:space="preserve" xmlns="http://www.w3.org/2000/svg" xmlns:xlink="http://www.w3.org/1999/xlink"><g><path d="M33,10v12.33c-0.787,0.341-1.431,0.934-1.859,1.67H31v0.259c-0.257,0.528-0.414,1.114-0.414,1.741   s0.157,1.213,0.414,1.74V28h0.141c0.693,1.19,1.969,2,3.445,2s2.752-0.81,3.445-2H46v-4h-7.969   c-0.459-0.788-1.169-1.403-2.031-1.73V10H33z" fill="#231F20"/><path d="M34.586,0.164C21.77,0.164,11.137,9.67,9.354,22h-8.98l11.718,14.627L23.81,22h-8.335   c1.723-9,9.616-15.836,19.111-15.836c10.752,0,19.5,8.748,19.5,19.5c0,10.752-8.748,19.5-19.5,19.5   c-6.497,0-12.246-3.206-15.792-8.105l-3.868,4.828c4.682,5.662,11.757,9.277,19.66,9.277c14.061,0,25.5-11.439,25.5-25.5   S48.646,0.164,34.586,0.164z" fill="#231F20"/></g></svg>