<?xml version="1.0" ?><!DOCTYPE svg  PUBLIC '-//W3C//DTD SVG 1.1//EN'  'http://www.w3.org/Graphics/SVG/1.1/DTD/svg11.dtd'><svg enable-background="new 0 0 43 31" height="31px" id="Layer_1" version="1.1" viewBox="0 0 43 31" width="43px" xml:space="preserve" xmlns="http://www.w3.org/2000/svg" xmlns:xlink="http://www.w3.org/1999/xlink"><path d="M38.607,14.695c0.008-0.133,0.02-0.266,0.02-0.403c0-3.221-2.489-5.858-5.651-6.098  c-1.348-4.521-5.533-7.818-10.491-7.818c-3.668,0-6.915,1.808-8.901,4.578C13.1,4.873,12.602,4.83,12.091,4.83  C7.072,4.83,3,8.899,3,13.92c0,0.344,0.023,0.683,0.058,1.018c-2.173,1.653-3.581,4.14-3.581,7.151c0,5.021,3.923,8.91,8.761,8.91  h25.526c4.837,0,8.76-3.889,8.76-8.91C42.523,18.928,40.967,16.325,38.607,14.695z M21,29.667L11.334,20H17V8h8v12h5.666L21,29.667z  " fill="#231F20"/></svg>