<?xml version="1.0" ?><!DOCTYPE svg  PUBLIC '-//W3C//DTD SVG 1.1//EN'  'http://www.w3.org/Graphics/SVG/1.1/DTD/svg11.dtd'><svg enable-background="new 0 0 46 47" height="47px" id="Layer_1" version="1.1" viewBox="0 0 46 47" width="46px" xml:space="preserve" xmlns="http://www.w3.org/2000/svg" xmlns:xlink="http://www.w3.org/1999/xlink"><path d="M14,6v10v13.133C12.66,28.411,11.128,28,9.5,28C4.253,28,0,32.254,0,37.5S4.253,47,9.5,47  c4.009,0,7.431-2.487,8.826-6H19V15.375l22-2.75v16.508C39.66,28.411,38.129,28,36.5,28c-5.246,0-9.5,4.254-9.5,9.5  s4.254,9.5,9.5,9.5c4.01,0,7.432-2.487,8.826-6H46V12V6V0L14,6z" fill="#231F20"/></svg>