<?xml version="1.0" ?><!DOCTYPE svg  PUBLIC '-//W3C//DTD SVG 1.1//EN'  'http://www.w3.org/Graphics/SVG/1.1/DTD/svg11.dtd'><svg enable-background="new 0 0 47 39" height="39px" id="Layer_1" version="1.1" viewBox="0 0 47 39" width="47px" xml:space="preserve" xmlns="http://www.w3.org/2000/svg" xmlns:xlink="http://www.w3.org/1999/xlink"><path d="M45.899,10.658c0.911-1.846,0.62-4.134-0.917-5.67l-2.095-2.096c-1.536-1.536-3.825-1.828-5.671-0.917  L37.211,1.97l-0.019,0.019c-0.463,0.231-0.904,0.519-1.29,0.904L25.426,13.37c-0.385,0.385-0.672,0.827-0.903,1.289l-6.282,6.282  l-0.425,0.426l-6.688-6.688c-0.001-0.001-0.002-0.001-0.003-0.002l-0.667-0.667l-0.067,0.067c-1.836-1.216-4.333-1.017-5.952,0.601  l-2.007,2.007c-1.618,1.618-1.817,4.115-0.601,5.951l-0.067,0.067l0.892,0.893l4.816,4.817l4.815,4.815l1.97,1.97l3.557,3.558  l3.503-3.503l5.618-5.617l6.282-6.283c0.462-0.231,0.903-0.518,1.288-0.902l10.477-10.478c0.385-0.385,0.672-0.826,0.902-1.287  l0.021-0.021L45.899,10.658z" fill="#221F1F"/></svg>