<?xml version="1.0" ?><!DOCTYPE svg  PUBLIC '-//W3C//DTD SVG 1.1//EN'  'http://www.w3.org/Graphics/SVG/1.1/DTD/svg11.dtd'><svg enable-background="new 0 0 28 38" height="38px" id="Layer_1" version="1.1" viewBox="0 0 28 38" width="28px" xml:space="preserve" xmlns="http://www.w3.org/2000/svg" xmlns:xlink="http://www.w3.org/1999/xlink"><path d="M14,0.5C6.877,0.5,0.792,5.999,0.072,12.783C0.025,13.225,0,13.674,0,14.128v11.034  c0,0.454,0.025,0.903,0.072,1.346C0.792,33.291,6.877,38.79,14,38.79c7.589,0,14-6.241,14-13.628V14.128C28,6.741,21.589,0.5,14,0.5  z M21.31,8.449c0,6.139-2.074,9.359-3.909,12.207c-1.8,2.792-3.354,5.204-3.354,10.327c0,0.956-0.778,1.733-1.734,1.733  s-1.734-0.777-1.734-1.733c0-6.144,2.075-9.364,3.908-12.208c1.8-2.792,3.356-5.204,3.356-10.326c0-0.957,0.777-1.736,1.732-1.736  C20.53,6.713,21.31,7.492,21.31,8.449z" fill="#221F1F"/></svg>