<?xml version="1.0" ?><!DOCTYPE svg  PUBLIC '-//W3C//DTD SVG 1.1//EN'  'http://www.w3.org/Graphics/SVG/1.1/DTD/svg11.dtd'><svg enable-background="new 0 0 41 41" height="41px" id="Layer_1" version="1.1" viewBox="0 0 41 41" width="41px" xml:space="preserve" xmlns="http://www.w3.org/2000/svg" xmlns:xlink="http://www.w3.org/1999/xlink"><path d="M38,16h-6.636l4.691-4.691c1.171-1.171,1.345-2.898,0.386-3.857l-2.893-2.893  c-0.958-0.958-2.686-0.785-3.856,0.386L25,9.637V3c0-1.656-1.099-3-2.454-3h-4.091C17.099,0,16,1.343,16,3v6.636l-4.691-4.691  C10.137,3.773,8.41,3.6,7.451,4.559L4.558,7.451C3.6,8.409,3.773,10.137,4.944,11.308L9.637,16H3c-1.656,0-3,1.099-3,2.455v4.09  C0,23.901,1.344,25,3,25h6.637l-4.693,4.693c-1.171,1.171-1.345,2.898-0.386,3.856l2.893,2.893c0.959,0.959,2.686,0.786,3.856-0.386  L16,31.363V38c0,1.656,1.099,3,2.455,3h4.091C23.901,41,25,39.656,25,38v-6.637l4.693,4.693c1.171,1.171,2.897,1.345,3.856,0.386  l2.893-2.893c0.959-0.959,0.786-2.686-0.386-3.856L31.363,25H38c1.656,0,3-1.099,3-2.455v-4.09C41,17.099,39.656,16,38,16z" fill="#231F20"/></svg>