<?xml version="1.0" ?><!DOCTYPE svg  PUBLIC '-//W3C//DTD SVG 1.1//EN'  'http://www.w3.org/Graphics/SVG/1.1/DTD/svg11.dtd'><svg enable-background="new 0 0 51 59" height="59px" id="Layer_1" version="1.1" viewBox="0 0 51 59" width="51px" xml:space="preserve" xmlns="http://www.w3.org/2000/svg" xmlns:xlink="http://www.w3.org/1999/xlink"><g><path d="M32,2.5C32,0.843,31.157,0,29.5,0h-7C20.843,0,19,0.843,19,2.5V5h13V2.5z" fill="#231F20"/><path d="M25.586,8.164c-14.061,0-25.5,11.439-25.5,25.5s11.439,25.5,25.5,25.5s25.5-11.439,25.5-25.5   S39.646,8.164,25.586,8.164z M25.586,53.164c-10.752,0-19.5-8.748-19.5-19.5c0-10.752,8.748-19.5,19.5-19.5s19.5,8.748,19.5,19.5   C45.086,44.416,36.338,53.164,25.586,53.164z" fill="#231F20"/><path d="M28,30.555V19h-4v11.555c-1.19,0.693-2,1.969-2,3.445c0,2.209,1.791,4,4,4s4-1.791,4-4   C30,32.523,29.19,31.248,28,30.555z" fill="#231F20"/></g></svg>