<?xml version="1.0" ?><!DOCTYPE svg  PUBLIC '-//W3C//DTD SVG 1.1//EN'  'http://www.w3.org/Graphics/SVG/1.1/DTD/svg11.dtd'><svg enable-background="new 0 0 82 38" height="38px" id="Layer_1" version="1.1" viewBox="0 0 82 38" width="82px" xml:space="preserve" xmlns="http://www.w3.org/2000/svg" xmlns:xlink="http://www.w3.org/1999/xlink"><g><polygon fill="#231F20" points="43.291,21 47.742,21 45.529,15.836  "/><path d="M77,0H5C2.239,0,0,2.238,0,5v28c0,2.762,2.239,5,5,5h72c2.762,0,5-2.238,5-5V5C82,2.238,79.762,0,77,0z    M29.426,28l-3.893-12.363L21.667,28h-2.951l-6.207-18h4.299l3.511,10.227L23.473,10h4.146l3.129,10.227L34.285,10h4.299l-6.207,18   H29.426z M50.896,28l-1.653-4H41.79l-1.653,4h-4.223l7.682-18h3.842l7.682,18H50.896z M62.803,28h-3.358l-7.148-18h4.299   l4.528,11.32L65.651,10h4.299L62.803,28z" fill="#231F20"/></g></svg>