<?xml version="1.0" ?><!DOCTYPE svg  PUBLIC '-//W3C//DTD SVG 1.1//EN'  'http://www.w3.org/Graphics/SVG/1.1/DTD/svg11.dtd'><svg enable-background="new 0 0 82 38" height="38px" id="Layer_1" version="1.1" viewBox="0 0 82 38" width="82px" xml:space="preserve" xmlns="http://www.w3.org/2000/svg" xmlns:xlink="http://www.w3.org/1999/xlink"><g><polygon fill="#231F20" points="29.573,21 34.025,21 31.812,15.836  "/><path d="M77,0H5C2.239,0,0,2.238,0,5v28c0,2.762,2.239,5,5,5h72c2.762,0,5-2.238,5-5V5C82,2.238,79.762,0,77,0z    M37.18,28l-1.654-4h-7.454l-1.653,4h-4.223l7.682-18h3.841l7.683,18H37.18z M49.085,28h-3.358l-7.148-18h4.298l4.529,11.32   L51.934,10h4.299L49.085,28z M61,28h-4V10h4V28z" fill="#231F20"/></g></svg>