<?xml version="1.0" ?><!DOCTYPE svg  PUBLIC '-//W3C//DTD SVG 1.1//EN'  'http://www.w3.org/Graphics/SVG/1.1/DTD/svg11.dtd'><svg enable-background="new 0 0 82 38" height="38px" id="Layer_1" version="1.1" viewBox="0 0 82 38" width="82px" xml:space="preserve" xmlns="http://www.w3.org/2000/svg" xmlns:xlink="http://www.w3.org/1999/xlink"><path d="M77,0H5C2.239,0,0,2.238,0,5v28c0,2.762,2.239,5,5,5h72c2.762,0,5-2.238,5-5V5C82,2.238,79.762,0,77,0z   M63,14h-5v14h-4V14h-5v-3.623l-5.281,8.414L49.884,28H45.05l-3.79-5.852L37.495,28h-4.783l5.843-9.107L33,10.456V14h-5v14h-4V14h-5  v-4h14.119h0.152h4.604l3.384,5.266L44.643,10h4.681h0.103H63V14z" fill="#231F20"/></svg>