<?xml version="1.0" ?><!DOCTYPE svg  PUBLIC '-//W3C//DTD SVG 1.1//EN'  'http://www.w3.org/Graphics/SVG/1.1/DTD/svg11.dtd'><svg enable-background="new 0 0 50 50" height="50px" id="Layer_1" version="1.1" viewBox="0 0 50 50" width="50px" xml:space="preserve" xmlns="http://www.w3.org/2000/svg" xmlns:xlink="http://www.w3.org/1999/xlink"><path d="M18,18h-7.431C7.723,18,5,21.122,5,23.969v2.062C5,28.877,7.723,32,10.569,32H18v7.432  C18,42.278,21.124,45,23.97,45h2.062C28.878,45,32,42.278,32,39.432V32h7.433C42.279,32,45,28.877,45,26.03v-2.062  C45,21.122,42.279,18,39.433,18H32v-7.433C32,7.721,28.879,5,26.032,5H23.97C21.124,5,18,7.721,18,10.567V18z" fill="#231F20"/></svg>