<?xml version="1.0" ?><!DOCTYPE svg  PUBLIC '-//W3C//DTD SVG 1.1//EN'  'http://www.w3.org/Graphics/SVG/1.1/DTD/svg11.dtd'><svg enable-background="new 0 0 31 31" height="31px" id="Layer_1" version="1.1" viewBox="0 0 31 31" width="31px" xml:space="preserve" xmlns="http://www.w3.org/2000/svg" xmlns:xlink="http://www.w3.org/1999/xlink"><g><path d="M26.68,26.23c0.064-0.068,0.131-0.135,0.193-0.204c0.094-0.101,0.186-0.204,0.277-0.309   c0.061-0.069,0.121-0.139,0.181-0.209c0.091-0.106,0.18-0.216,0.268-0.325c0.056-0.068,0.11-0.139,0.164-0.209   c0.089-0.113,0.176-0.229,0.261-0.346c0.048-0.065,0.095-0.132,0.142-0.199c0.087-0.123,0.175-0.248,0.259-0.374   c0.035-0.054,0.068-0.108,0.104-0.161c0.423-0.655,0.797-1.344,1.119-2.062c0.023-0.053,0.049-0.104,0.071-0.157   c0.065-0.15,0.127-0.303,0.188-0.455c0.026-0.064,0.052-0.13,0.077-0.195c0.057-0.15,0.111-0.301,0.164-0.453   c0.023-0.068,0.047-0.137,0.07-0.206c0.051-0.153,0.1-0.308,0.145-0.464c0.02-0.066,0.039-0.133,0.058-0.2   c0.045-0.161,0.089-0.322,0.13-0.485c0.014-0.056,0.025-0.111,0.038-0.167C30.854,17.91,31,16.723,31,15.5   C31,6.939,24.061,0,15.5,0S0,6.939,0,15.5c0,1.223,0.146,2.41,0.413,3.55c0.013,0.056,0.025,0.111,0.039,0.167   c0.04,0.163,0.084,0.324,0.129,0.485c0.019,0.067,0.038,0.134,0.057,0.2c0.046,0.156,0.095,0.311,0.146,0.464   c0.023,0.069,0.046,0.138,0.07,0.206c0.053,0.152,0.107,0.303,0.165,0.453c0.025,0.065,0.051,0.131,0.077,0.195   c0.061,0.152,0.122,0.305,0.188,0.455c0.023,0.053,0.048,0.104,0.071,0.157c0.322,0.718,0.696,1.406,1.119,2.062   c0.035,0.053,0.068,0.107,0.104,0.161c0.084,0.126,0.171,0.251,0.259,0.374c0.047,0.067,0.094,0.134,0.142,0.199   c0.085,0.117,0.172,0.232,0.261,0.346c0.054,0.07,0.109,0.141,0.164,0.209c0.088,0.109,0.177,0.219,0.268,0.325   c0.06,0.07,0.12,0.14,0.181,0.209c0.091,0.104,0.183,0.208,0.276,0.309c0.063,0.069,0.129,0.136,0.194,0.204   c0.095,0.099,0.19,0.198,0.288,0.295c0.066,0.064,0.134,0.127,0.201,0.191c0.21,0.201,0.426,0.396,0.647,0.584   c0.049,0.043,0.097,0.086,0.147,0.128c0.094,0.077,0.19,0.151,0.285,0.227c0.088,0.07,0.176,0.142,0.267,0.21   c0.094,0.071,0.19,0.14,0.287,0.209c0.094,0.068,0.189,0.137,0.285,0.203c0.096,0.065,0.193,0.129,0.291,0.193   c0.1,0.065,0.201,0.131,0.302,0.193c0.097,0.061,0.194,0.119,0.292,0.178c0.106,0.063,0.214,0.125,0.322,0.186   c0.097,0.055,0.193,0.107,0.291,0.16c0.116,0.062,0.233,0.12,0.35,0.18c0.093,0.046,0.186,0.094,0.28,0.139   c0.134,0.063,0.271,0.123,0.407,0.184c0.08,0.035,0.159,0.072,0.239,0.106c0.215,0.091,0.433,0.177,0.653,0.257   c0.056,0.021,0.114,0.039,0.17,0.059c0.169,0.061,0.338,0.119,0.51,0.173c0.086,0.027,0.174,0.052,0.261,0.077   c0.144,0.043,0.289,0.085,0.435,0.123c0.095,0.025,0.191,0.049,0.287,0.072c0.141,0.033,0.282,0.066,0.423,0.098   c0.099,0.021,0.198,0.041,0.298,0.06c0.142,0.028,0.285,0.054,0.429,0.077c0.099,0.016,0.199,0.032,0.298,0.047   c0.149,0.021,0.299,0.039,0.449,0.057c0.096,0.011,0.191,0.023,0.288,0.032c0.166,0.016,0.332,0.027,0.499,0.038   c0.083,0.005,0.164,0.012,0.247,0.016c0.25,0.013,0.5,0.02,0.753,0.02s0.504-0.007,0.753-0.02c0.083-0.004,0.164-0.011,0.247-0.016   c0.166-0.011,0.332-0.022,0.498-0.038c0.096-0.009,0.191-0.021,0.287-0.032c0.15-0.018,0.301-0.035,0.449-0.057   c0.1-0.015,0.199-0.031,0.299-0.047c0.144-0.023,0.287-0.049,0.429-0.077c0.1-0.019,0.198-0.039,0.298-0.06   c0.142-0.031,0.283-0.064,0.424-0.098c0.096-0.023,0.191-0.047,0.286-0.072c0.146-0.038,0.291-0.08,0.435-0.123   c0.088-0.025,0.175-0.05,0.262-0.077c0.171-0.054,0.34-0.112,0.51-0.173c0.057-0.02,0.113-0.037,0.17-0.059   c0.221-0.08,0.438-0.166,0.652-0.257c0.081-0.034,0.16-0.071,0.24-0.106c0.137-0.061,0.272-0.12,0.406-0.184   c0.095-0.045,0.188-0.093,0.28-0.139c0.117-0.06,0.234-0.118,0.351-0.18c0.098-0.053,0.193-0.105,0.29-0.16   c0.108-0.061,0.216-0.122,0.322-0.186c0.099-0.059,0.196-0.117,0.292-0.178c0.102-0.063,0.203-0.128,0.303-0.193   c0.098-0.064,0.195-0.128,0.291-0.193c0.096-0.066,0.19-0.135,0.285-0.203c0.096-0.069,0.191-0.138,0.286-0.209   c0.091-0.068,0.179-0.14,0.267-0.21c0.096-0.075,0.191-0.149,0.285-0.227c0.05-0.042,0.098-0.085,0.146-0.128   c0.223-0.188,0.438-0.383,0.648-0.584c0.066-0.064,0.135-0.127,0.201-0.191C26.49,26.429,26.584,26.329,26.68,26.23z M15.5,2.913   c6.94,0,12.588,5.889,12.588,12.829c0,1.04-0.13,2.258-0.369,3.258h-7.953c0,2-1.863,4.161-4.162,4.161S11.443,21,11.443,19H3.281   c-0.239-1-0.368-2.219-0.368-3.258C2.913,8.801,8.56,2.913,15.5,2.913z" fill="#231F20"/><path d="M7.314,17c0,0,0.002,0,0.003,0c1.137,0,2.058-0.979,2.056-2.116c-0.003-1.137-0.928-2.071-2.064-2.068   c-1.137,0.002-2.057,0.966-2.055,2.104C5.257,16.054,6.179,17,7.314,17z" fill="#231F20"/><path d="M21.273,11.082c0.53,0,1.059-0.204,1.461-0.609c0.803-0.807,0.797-2.111-0.011-2.913   c-0.808-0.8-2.11-0.795-2.911,0.011c-0.803,0.808-0.797,2.111,0.011,2.913C20.225,10.881,20.749,11.082,21.273,11.082z" fill="#231F20"/><path d="M22,14.81c0,0.003,0,0.005,0,0.009c0,0.005,0,0.011,0,0.016c0,1.137,0.75,2.059,1.889,2.059   c1.137,0,2.079-0.922,2.079-2.059c0-0.013,0.032-0.025,0.032-0.038C26,14.795,26,15,26,15h-0.191c0-1-0.781-2.159-1.918-2.154   C22.754,12.852,22,13.671,22,14.81z" fill="#231F20"/><path d="M15.478,9c0.002,0,0.004,0,0.005,0c1.137,0,2.058-1.098,2.054-2.235c-0.004-1.137-0.93-2.108-2.066-2.106   c-1.137,0.003-2.055,1.062-2.052,2.199C13.423,7.993,14.343,9,15.478,9z" fill="#231F20"/><path d="M9.697,11.118c0.528,0,1.056-0.202,1.459-0.607c0.802-0.808,0.798-2.111-0.007-2.913   C10.343,6.796,9.04,6.799,8.238,7.607c-0.802,0.806-0.798,2.109,0.007,2.911C8.646,10.917,9.172,11.118,9.697,11.118z" fill="#231F20"/><path d="M13.107,18.517c0,1.379,1.118,2.497,2.497,2.497c1.378,0,2.497-1.118,2.497-2.497   c0-0.309-0.059-0.603-0.161-0.876c-0.019-0.228-0.07-0.445-0.15-0.65c-0.016-0.229-0.067-0.446-0.148-0.65   c-0.016-0.229-0.066-0.448-0.15-0.65c-0.012-0.228-0.063-0.445-0.149-0.645c-0.009-0.229-0.081-0.446-0.17-0.644   C17.166,14.171,17,13.954,17,13.757c0-0.002,0-0.004,0-0.007c0-0.231-0.035-0.45-0.133-0.643c0.001-0.013,0.013-0.025,0.013-0.038   c0-0.221-0.052-0.43-0.149-0.612c0.001-0.023,0.006-0.045,0.006-0.069c0-0.213-0.059-0.411-0.16-0.581   c0.004-0.033,0.011-0.066,0.011-0.1c0-0.201-0.062-0.388-0.165-0.544c0.008-0.044,0.014-0.089,0.014-0.136   c0-0.459-0.372-0.832-0.832-0.832s-0.832,0.373-0.832,0.832c0,0.047,0.006,0.092,0.014,0.136c-0.104,0.156-0.165,0.343-0.165,0.544   c0,0.035,0.006,0.067,0.01,0.1c-0.102,0.17-0.161,0.368-0.161,0.581c0,0.023,0.002,0.046,0.003,0.068   c-0.099,0.182-0.155,0.391-0.155,0.612c0,0.013-0.082,0.025-0.082,0.038C14.14,13.301,14,13.519,14,13.75c0,0.002,0,0.004,0,0.007   c0,0.196-0.063,0.414-0.067,0.645c-0.088,0.197-0.098,0.414-0.107,0.642c-0.087,0.2-0.117,0.417-0.129,0.646   c-0.084,0.203-0.124,0.422-0.139,0.65c-0.082,0.204-0.127,0.422-0.145,0.65c-0.08,0.205-0.128,0.423-0.147,0.65   C13.164,17.914,13.107,18.208,13.107,18.517z" fill="#231F20"/></g></svg>