<?xml version="1.0" ?><!DOCTYPE svg  PUBLIC '-//W3C//DTD SVG 1.1//EN'  'http://www.w3.org/Graphics/SVG/1.1/DTD/svg11.dtd'><svg enable-background="new 0 0 34 46" height="46px" id="Layer_1" version="1.1" viewBox="0 0 34 46" width="34px" xml:space="preserve" xmlns="http://www.w3.org/2000/svg" xmlns:xlink="http://www.w3.org/1999/xlink"><g><path d="M3.72,28.021c0.363,1.121,0.878,2.145,1.544,3.073s1.529,1.721,2.589,2.376   c1.06,0.656,2.346,1.166,3.859,1.529s3.31,0.545,5.389,0.545c2.18,0,4.047-0.207,5.6-0.621c1.555-0.413,2.855-0.983,3.906-1.71   c1.049-0.727,1.893-1.574,2.527-2.543c0.637-0.969,1.115-2.019,1.438-3.148c0.324-1.13,0.355-2.301,0.456-3.512   S31,21.589,31,20.378V0h-7v20.378c0,1.635-0.109,3.018-0.361,4.147c-0.253,1.131-0.652,2.043-1.218,2.74   c-0.565,0.695-1.282,1.201-2.16,1.514s-1.931,0.469-3.162,0.469c-1.312,0-2.411-0.161-3.299-0.484   c-0.888-0.322-1.604-0.842-2.149-1.559s-1.002-1.635-1.234-2.756C10.185,23.33,10,21.973,10,20.378V0H3v20.378   c0,1.393-0.044,2.735,0.088,4.026C3.219,25.696,3.357,26.902,3.72,28.021z" fill="#231F20"/><rect fill="#231F20" height="8" width="34" y="38"/></g></svg>