<?xml version="1.0" ?><!DOCTYPE svg  PUBLIC '-//W3C//DTD SVG 1.1//EN'  'http://www.w3.org/Graphics/SVG/1.1/DTD/svg11.dtd'><svg enable-background="new 0 0 67 50" height="50px" id="Layer_1" version="1.1" viewBox="0 0 67 50" width="67px" xml:space="preserve" xmlns="http://www.w3.org/2000/svg" xmlns:xlink="http://www.w3.org/1999/xlink"><g><path d="M33.667,18.25c-4.962,0-9,4.038-9,9c0,4.963,4.038,9,9,9s9-4.037,9-9   C42.666,22.288,38.629,18.25,33.667,18.25z" fill="#231F20"/><path d="M60,4H41c0-2.209-1.791-4-4-4h-7c-2.209,0-4,1.791-4,4H7c-3.866,0-7,3.134-7,7v32c0,3.866,3.134,7,7,7h53   c3.866,0,7-3.134,7-7V11C67,7.134,63.866,4,60,4z M33.667,41.25c-7.732,0-14-6.268-14-14s6.268-14,14-14c7.732,0,14,6.268,14,14   S41.398,41.25,33.667,41.25z" fill="#231F20"/></g></svg>