<?xml version="1.0" ?><!DOCTYPE svg  PUBLIC '-//W3C//DTD SVG 1.1//EN'  'http://www.w3.org/Graphics/SVG/1.1/DTD/svg11.dtd'><svg enable-background="new 0 0 82 38" height="38px" id="Layer_1" version="1.1" viewBox="0 0 82 38" width="82px" xml:space="preserve" xmlns="http://www.w3.org/2000/svg" xmlns:xlink="http://www.w3.org/1999/xlink"><g><path d="M77,0H5C2.239,0,0,2.238,0,5v28c0,2.762,2.239,5,5,5h72c2.762,0,5-2.238,5-5V5C82,2.238,79.762,0,77,0z    M29,21.818c0,2.12-0.377,3.705-1.471,4.757c-1.094,1.052-2.413,1.577-4.125,1.577c-2.137,0-3.96-0.822-5.554-2.467l2.082-2.85   c1.068,1.153,2.198,1.73,3.369,1.73c0.56,0,0.871-0.217,1.27-0.649S25,22.836,25,21.971V14h-5v-4h9V21.818z M44.234,21.493   C42.953,22.511,40.999,23,38.371,23H36v5h-4V10h6.32c2.73,0,4.719,0.64,5.965,1.699s1.869,2.732,1.869,4.929   S45.515,20.476,44.234,21.493z M63,25.252c-1,1.969-4.068,2.951-7.189,2.951c-2.611,0-4.734-0.865-6.507-2.594   c-1.772-1.73-2.624-3.914-2.624-6.551c0-2.637,0.92-4.837,2.727-6.601s3.994-2.646,6.547-2.646c2.552,0,4.773,0.84,6.656,2.519   l-2.059,2.977c-0.797-0.695-1.529-1.174-2.199-1.438c-0.67-0.263-1.395-0.395-2.175-0.395c-1.509,0-2.781,0.513-3.815,1.539   c-1.035,1.026-1.552,2.379-1.552,4.058c0,1.679,0.496,3.023,1.488,4.033c0.992,1.009,2.034,1.514,3.408,1.514S58,24.354,59,23.828   V19h4V25.252z" fill="#231F20"/><path d="M41.156,14.462C40.537,14.03,39.575,14,38.269,14H36v6h2.676c1.323,0,2.222-0.465,2.697-0.999   c0.475-0.534,0.712-1.319,0.712-2.346C42.085,15.629,41.775,14.895,41.156,14.462z" fill="#231F20"/></g></svg>