<?xml version="1.0" ?><!DOCTYPE svg  PUBLIC '-//W3C//DTD SVG 1.1//EN'  'http://www.w3.org/Graphics/SVG/1.1/DTD/svg11.dtd'><svg enable-background="new 0 0 82 38" height="38px" id="Layer_1" version="1.1" viewBox="0 0 82 38" width="82px" xml:space="preserve" xmlns="http://www.w3.org/2000/svg" xmlns:xlink="http://www.w3.org/1999/xlink"><g><path d="M41.09,13.271c-1.484,0-2.735,0.56-3.752,1.679c-1.018,1.12-1.526,2.472-1.526,4.058   c0,1.586,0.509,2.934,1.526,4.045c1.018,1.11,2.268,1.666,3.752,1.666s2.734-0.556,3.752-1.666   c1.018-1.111,1.526-2.459,1.526-4.045c0-1.585-0.509-2.938-1.526-4.058C43.824,13.831,42.574,13.271,41.09,13.271z" fill="#231F20"/><path d="M20.904,14H19v10h2.209c1.814,0,3.209-0.213,4.185-1.129c0.975-0.916,1.463-2.125,1.463-3.872   c0-1.746-0.488-2.868-1.463-3.809C24.418,14.249,22.922,14,20.904,14z" fill="#231F20"/><path d="M77,0H5C2.239,0,0,2.238,0,5v28c0,2.762,2.239,5,5,5h72c2.762,0,5-2.238,5-5V5C82,2.238,79.762,0,77,0z    M28.371,25.584C26.717,27.195,24.194,28,20.802,28H15V10h6.006c3.171,0,5.605,0.885,7.301,2.437s2.544,3.765,2.544,6.529   C30.851,21.73,30.024,23.973,28.371,25.584z M47.717,25.545c-1.798,1.756-4.012,2.633-6.64,2.633c-2.629,0-4.842-0.877-6.64-2.633   c-1.798-1.755-2.696-3.938-2.696-6.55c0-2.611,0.898-4.795,2.696-6.551c1.797-1.755,4.011-2.633,6.64-2.633   c2.628,0,4.842,0.878,6.64,2.633c1.797,1.755,2.696,3.939,2.696,6.551C50.413,21.606,49.514,23.79,47.717,25.545z M56.772,22.988   c1.001,1.001,2.214,1.501,3.638,1.501c1.95,0,3.545-0.771,4.783-2.315l2.543,2.621c-2.018,2.272-4.396,3.408-7.135,3.408   c-2.74,0-4.995-0.865-6.768-2.594c-1.771-1.73-2.658-3.914-2.658-6.551c0-2.637,0.903-4.837,2.709-6.601   c1.807-1.764,4.016-2.646,6.627-2.646c2.917,0,5.359,1.111,7.326,3.333l-2.467,2.798c-1.256-1.56-2.815-2.34-4.682-2.34   c-1.492,0-2.768,0.488-3.828,1.463s-1.59,2.29-1.59,3.943C55.271,20.66,55.771,21.988,56.772,22.988z" fill="#231F20"/></g></svg>