<?xml version="1.0" ?><!DOCTYPE svg  PUBLIC '-//W3C//DTD SVG 1.1//EN'  'http://www.w3.org/Graphics/SVG/1.1/DTD/svg11.dtd'><svg enable-background="new 0 0 51 51" height="51px" id="Layer_1" version="1.1" viewBox="0 0 51 51" width="51px" xml:space="preserve" xmlns="http://www.w3.org/2000/svg" xmlns:xlink="http://www.w3.org/1999/xlink"><g><path d="M27,22.27V10h-3v12.33c-0.787,0.341-1.431,0.934-1.859,1.67H22v0.259c-0.257,0.528-0.414,1.114-0.414,1.741   s0.157,1.213,0.414,1.74V28h0.141c0.693,1.19,1.969,2,3.445,2s2.752-0.81,3.445-2H37v-4h-7.969   C28.572,23.212,27.862,22.597,27,22.27z" fill="#231F20"/><path d="M25.586,0.164c-14.061,0-25.5,11.439-25.5,25.5s11.439,25.5,25.5,25.5s25.5-11.439,25.5-25.5   S39.646,0.164,25.586,0.164z M25.586,45.164c-10.752,0-19.5-8.748-19.5-19.5c0-10.752,8.748-19.5,19.5-19.5s19.5,8.748,19.5,19.5   C45.086,36.416,36.338,45.164,25.586,45.164z" fill="#231F20"/></g></svg>