<?xml version="1.0" ?><!DOCTYPE svg  PUBLIC '-//W3C//DTD SVG 1.1//EN'  'http://www.w3.org/Graphics/SVG/1.1/DTD/svg11.dtd'><svg enable-background="new 0 0 56 49" height="49px" id="Layer_1" version="1.1" viewBox="0 0 56 49" width="56px" xml:space="preserve" xmlns="http://www.w3.org/2000/svg" xmlns:xlink="http://www.w3.org/1999/xlink"><g><path d="M22,25.715C22,26.502,22.248,27,23.036,27h8.572C32.395,27,33,26.502,33,25.715V25H22V25.715z" fill="#231F20"/><path d="M52,9H40V4.327C40,1.132,39.367,0,36.173,0H19c-4,0-4,2.353-4,4.327V9H4c-2.209,0-4,1.791-4,4v32   c0,2.209,1.791,4,4,4h48c2.209,0,4-1.791,4-4V13C56,10.791,54.209,9,52,9z M19,4.388C19,4.257,19,4,19,4h17.173   c0.193,0,0.021-0.074,0.146-0.069C36.324,4.056,36,4.134,36,4.327V9H19V4.388z M48.25,25H36v0.715C36,28.078,33.971,30,31.607,30   h-8.572C20.672,30,19,28.078,19,25.715V25H8.25c-1.104,0-2-0.896-2-2s0.896-2,2-2h40c1.104,0,2,0.896,2,2S49.354,25,48.25,25z" fill="#231F20"/></g></svg>