<?xml version="1.0" ?><!DOCTYPE svg  PUBLIC '-//W3C//DTD SVG 1.1//EN'  'http://www.w3.org/Graphics/SVG/1.1/DTD/svg11.dtd'><svg enable-background="new 0 0 61 53" height="53px" id="Layer_1" version="1.1" viewBox="0 0 61 53" width="61px" xml:space="preserve" xmlns="http://www.w3.org/2000/svg" xmlns:xlink="http://www.w3.org/1999/xlink"><g><path d="M29,35.133C27.66,34.411,26.128,34,24.5,34c-5.247,0-9.5,4.254-9.5,9.5s4.253,9.5,9.5,9.5   c4.009,0,7.432-2.487,8.826-6H34V33h-5V35.133z" fill="#231F20"/><path d="M43,9.375V20.25l13-1.625v16.508C54.66,34.411,53.129,34,51.5,34c-5.246,0-9.5,4.254-9.5,9.5   s4.254,9.5,9.5,9.5c4.01,0,7.432-2.487,8.826-6H61V18v-6V6L43,9.375z" fill="#231F20"/><path d="M20,10.95c-2.977,0-5.4,2.423-5.4,5.4c0,2.978,2.423,5.4,5.4,5.4s5.4-2.422,5.4-5.4   C25.399,13.373,22.977,10.95,20,10.95z" fill="#231F20"/><path d="M35.8,2H24.4c0-1-1.075-2-2.4-2h-4.2c-1.325,0-2.4,1-2.4,2H4C1.68,2,0,4.28,0,6.6v19.2   C0,28.119,1.68,30,4,30h31.8c2.319,0,4.2-1.881,4.2-4.2V6.6C40,4.28,38.119,2,35.8,2z M20,24.75c-4.639,0-8.4-3.761-8.4-8.4   s3.761-8.4,8.4-8.4s8.4,3.761,8.4,8.4S24.639,24.75,20,24.75z" fill="#231F20"/></g></svg>