<?xml version="1.0" ?><!DOCTYPE svg  PUBLIC '-//W3C//DTD SVG 1.1//EN'  'http://www.w3.org/Graphics/SVG/1.1/DTD/svg11.dtd'><svg enable-background="new 0 0 50 53" height="53px" id="Layer_1" version="1.1" viewBox="0 0 50 53" width="50px" xml:space="preserve" xmlns="http://www.w3.org/2000/svg" xmlns:xlink="http://www.w3.org/1999/xlink"><g><path d="M50,29l-9-16.87V12h-4.731l2.348,2.481L38.093,15H39l0.104,0.13L44.98,26H30c0,2.762-2.238,5-5,5   s-5-2.238-5-5H5.02l5.773-11h1.537l-0.584-0.584L14.157,12H9L0,29h0.184C0.072,29.314,0,29.647,0,30v20c0,1.656,1.343,3,3,3h44   c1.657,0,3-1.344,3-3V30c0-0.353-0.072-0.686-0.184-1H50z" fill="#231F20"/><polygon fill="#231F20" points="34.423,14.414 32.993,12.903 27,19.269 27,0 24,0 24,19.269 17.494,12.903 15.986,14.414    25.165,23.592  "/></g></svg>