<?xml version="1.0" ?><!DOCTYPE svg  PUBLIC '-//W3C//DTD SVG 1.1//EN'  'http://www.w3.org/Graphics/SVG/1.1/DTD/svg11.dtd'><svg enable-background="new 0 0 128 170" height="170px" id="Layer_1" version="1.1" viewBox="0 0 128 170" width="128px" xml:space="preserve" xmlns="http://www.w3.org/2000/svg" xmlns:xlink="http://www.w3.org/1999/xlink"><path d="M127.199,29l0.211-0.004L99,0.379V0h-0.793L98.09-0.117L97.973,0H9.586C4.063,0,0,4.477,0,10v150  c0,5.523,4.063,10,9.586,10h108c5.522,0,10.414-4.477,10.414-10V29H127.199z M109,121H98v29h-8v-29H80v-7.026l-11.133,17.202  L81.136,150h-9.88l-7.748-11.96L55.812,150h-9.776l12.131-18.616L47,114.14V121H37v29h-8v-29H18v-7h28.867h0.313h9.411l6.916,10.764  L70.424,114h9.567h0.208H109V121z M108.586,29C103.063,29,99,24.523,99,19V4.622L122.965,29H108.586z" fill="#231F20"/></svg>