<?xml version="1.0" ?><!DOCTYPE svg  PUBLIC '-//W3C//DTD SVG 1.1//EN'  'http://www.w3.org/Graphics/SVG/1.1/DTD/svg11.dtd'><svg enable-background="new 0 0 128 170" height="170px" id="Layer_1" version="1.1" viewBox="0 0 128 170" width="128px" xml:space="preserve" xmlns="http://www.w3.org/2000/svg" xmlns:xlink="http://www.w3.org/1999/xlink"><g><path d="M35.404,122.136c-1.266-0.884-3.232-1.136-5.902-1.136H25v12h5.334c2.705,0,4.541-0.626,5.512-1.718   c0.971-1.093,1.457-2.631,1.457-4.729C37.303,124.456,36.67,123.02,35.404,122.136z" fill="#231F20"/><path d="M127.93,29l-0.154-0.004L99,0.379V0h-0.063L98.82-0.117L98.703,0H10.316C4.793,0,0,4.477,0,10v150   c0,5.523,4.793,10,10.316,10h108c5.521,0,9.684-4.477,9.684-10V29H127.93z M41.697,136.811C39.078,138.89,35.084,140,29.711,140H25   v10h-8v-36h12.607c5.58,0,9.645,0.91,12.193,3.076c2.547,2.167,3.822,5.443,3.822,9.932   C45.623,131.498,44.314,134.73,41.697,136.811z M71.439,147.374c-2.443,2.028-5.66,3.042-9.646,3.042   c-5.754,0-10.938-2.132-15.547-6.396l4.836-5.928c3.916,3.432,7.539,5.148,10.867,5.148c1.49,0,2.66-0.32,3.51-0.963   c0.85-0.641,1.275-1.508,1.275-2.6s-0.451-1.958-1.354-2.6c-0.9-0.641-2.686-1.291-5.355-1.95c-4.23-1.005-7.324-2.313-9.281-3.926   c-1.959-1.612-2.939-4.142-2.939-7.593c0-3.448,1.24-6.109,3.719-7.981s5.572-2.808,9.281-2.808c2.428,0,4.854,0.416,7.281,1.248   c2.426,0.832,4.541,2.011,6.344,3.535l-4.107,5.929c-3.156-2.392-6.414-3.589-9.777-3.589c-1.352,0-2.418,0.322-3.197,0.963   c-0.779,0.642-1.17,1.49-1.17,2.548s0.477,1.897,1.43,2.522c0.953,0.623,3.154,1.36,6.604,2.209   c3.449,0.85,6.127,2.125,8.035,3.822c1.906,1.699,2.859,4.178,2.859,7.436C75.105,142.703,73.883,145.346,71.439,147.374z    M106.799,145.061C103.42,148.354,98.262,150,91.33,150H79v-36h12.746c6.48,0,11.457,1.412,14.924,4.584   c3.465,3.172,5.199,7.496,5.199,13.146C111.869,137.382,110.18,141.768,106.799,145.061z M109.316,29C103.793,29,99,24.523,99,19   V4.622L123.695,29H109.316z" fill="#231F20"/><path d="M91.537,121H87v22h5.162c3.709,0,6.559-1.023,8.553-2.896c1.994-1.871,2.99-4.637,2.99-8.207   s-0.996-6.202-2.99-8.127C98.721,121.846,95.662,121,91.537,121z" fill="#231F20"/></g></svg>