<?xml version="1.0" ?><!DOCTYPE svg  PUBLIC '-//W3C//DTD SVG 1.1//EN'  'http://www.w3.org/Graphics/SVG/1.1/DTD/svg11.dtd'><svg enable-background="new 0 0 128 170" height="170px" id="Layer_1" version="1.1" viewBox="0 0 128 170" width="128px" xml:space="preserve" xmlns="http://www.w3.org/2000/svg" xmlns:xlink="http://www.w3.org/1999/xlink"><g><path d="M127.508,29l0.057-0.004L99,0.379V0h-0.484l-0.117-0.117L98.281,0H9.895C4.371,0,0,4.477,0,10v150   c0,5.523,4.371,10,9.895,10h108c5.521,0,10.105-4.477,10.105-10V29H127.508z M55.08,150l-3.379-8H36.465l-3.381,8h-8.631l15.703-36   h7.852l15.705,36H55.08z M79.416,150h-6.863l-14.613-36h8.789l9.256,23.141L85.24,114h8.787L79.416,150z M103,150h-8v-36h8V150z    M108.895,29C103.371,29,99,24.523,99,19V4.622L123.273,29H108.895z" fill="#231F20"/><polygon fill="#231F20" points="39.533,135 48.633,135 44.109,124.443  "/></g></svg>