<?xml version="1.0" ?><!DOCTYPE svg  PUBLIC '-//W3C//DTD SVG 1.1//EN'  'http://www.w3.org/Graphics/SVG/1.1/DTD/svg11.dtd'><svg enable-background="new 0 0 128 170" height="170px" id="Layer_1" version="1.1" viewBox="0 0 128 170" width="128px" xml:space="preserve" xmlns="http://www.w3.org/2000/svg" xmlns:xlink="http://www.w3.org/1999/xlink"><g><polygon fill="#231F20" points="67.859,136 76.435,136 72.172,126.053  "/><path d="M127.504,29l0.059-0.004L99,0.379V0h-0.488l-0.117-0.117L98.277,0H9.891C4.368,0,0,4.477,0,10v150   c0,5.523,4.368,10,9.891,10h108c5.522,0,10.109-4.477,10.109-10V29H127.504z M41.154,150l-7.497-23.814L26.209,150h-5.685   L8.568,116h8.281l6.763,19.697L29.688,116h7.987l6.027,19.697L50.513,116h8.281l-11.956,34H41.154z M82.511,150l-3.186-7H64.969   l-3.186,7h-8.134l14.798-34h7.399l14.798,34H82.511z M105.442,150h-6.468l-13.77-34h8.281l8.723,21.805L110.931,116h8.281   L105.442,150z M108.891,29C103.368,29,99,24.523,99,19V4.622L123.27,29H108.891z" fill="#231F20"/></g></svg>