<?xml version="1.0" ?><!DOCTYPE svg  PUBLIC '-//W3C//DTD SVG 1.1//EN'  'http://www.w3.org/Graphics/SVG/1.1/DTD/svg11.dtd'><svg enable-background="new 0 0 128 170" height="170px" id="Layer_1" version="1.1" viewBox="0 0 128 170" width="128px" xml:space="preserve" xmlns="http://www.w3.org/2000/svg" xmlns:xlink="http://www.w3.org/1999/xlink"><g><path d="M63.294,119.893c-3.034,0-5.59,1.144-7.67,3.432c-2.08,2.287-3.12,5.053-3.12,8.294s1.04,5.997,3.12,8.269   c2.08,2.27,4.636,3.405,7.67,3.405c3.033,0,5.59-1.136,7.67-3.405c2.08-2.271,3.12-5.027,3.12-8.269s-1.04-6.007-3.12-8.294   C68.884,121.036,66.327,119.893,63.294,119.893z" fill="#231F20"/><path d="M22.032,121H18v22h4.656c3.709,0,6.56-1.023,8.554-2.896c1.993-1.871,2.99-4.637,2.99-8.207   s-0.997-6.202-2.99-8.127C29.216,121.846,26.157,121,22.032,121z" fill="#231F20"/><path d="M127.296,29l0.163-0.004L99,0.379V0h-0.696l-0.117-0.117L98.069,0H9.683C4.16,0,0,4.477,0,10v150   c0,5.523,4.16,10,9.683,10h108c5.522,0,10.317-4.477,10.317-10V29H127.296z M37.294,145.061c-3.38,3.293-8.537,4.939-15.47,4.939H9   v-36h13.24c6.481,0,11.457,1.412,14.924,4.584c3.466,3.172,5.2,7.496,5.2,13.146C42.364,137.382,40.674,141.768,37.294,145.061z    M76.84,144.982c-3.675,3.588-8.199,5.381-13.572,5.381s-9.897-1.793-13.571-5.381c-3.675-3.588-5.513-8.051-5.513-13.391   c0-5.338,1.838-9.802,5.513-13.39c3.674-3.589,8.198-5.382,13.571-5.382s9.897,1.793,13.572,5.382   c3.674,3.588,5.512,8.052,5.512,13.39C82.352,136.932,80.514,141.395,76.84,144.982z M95.351,139.756   c2.046,2.046,4.524,3.068,7.437,3.068c3.986,0,7.245-1.577,9.776-4.732l5.199,5.356c-4.126,4.646-8.987,6.968-14.586,6.968   s-10.21-1.768-13.832-5.305c-3.623-3.535-5.434-7.998-5.434-13.389s1.846-9.889,5.538-13.494c3.691-3.605,8.207-5.408,13.546-5.408   c5.962,0,10.954,2.271,14.976,6.812l-5.044,5.72c-2.565-3.188-5.755-4.783-9.567-4.783c-3.051,0-5.66,0.996-7.826,2.99   c-2.167,1.993-3.25,4.68-3.25,8.06S93.305,137.711,95.351,139.756z M108.683,29C103.16,29,99,24.523,99,19V4.622L123.062,29   H108.683z" fill="#231F20"/></g></svg>