<?xml version="1.0" ?><!DOCTYPE svg  PUBLIC '-//W3C//DTD SVG 1.1//EN'  'http://www.w3.org/Graphics/SVG/1.1/DTD/svg11.dtd'><svg enable-background="new 0 0 128 170" height="170px" id="Layer_1" version="1.1" viewBox="0 0 128 170" width="128px" xml:space="preserve" xmlns="http://www.w3.org/2000/svg" xmlns:xlink="http://www.w3.org/1999/xlink"><g><path d="M65.68,122.136c-1.267-0.884-3.233-1.136-5.902-1.136H55v12h5.609c2.704,0,4.541-0.626,5.512-1.718   c0.971-1.093,1.456-2.631,1.456-4.729C67.577,124.456,66.944,123.02,65.68,122.136z" fill="#231F20"/><path d="M127.446,29l0.087-0.004L99,0.379V0h-0.546l-0.117-0.117L98.22,0H9.833C4.311,0,0,4.477,0,10v150   c0,5.523,4.311,10,9.833,10h108c5.522,0,10.167-4.477,10.167-10V29H127.446z M42,137.363c0,4.334-1.355,7.576-3.591,9.725   c-2.236,2.15-5.224,3.225-8.726,3.225c-4.367,0-8.24-1.682-11.499-5.045l4.183-5.824c2.184,2.358,4.457,3.537,6.849,3.537   c1.145,0,1.936-0.442,2.751-1.326C32.78,140.77,33,139.443,33,137.676V121H23v-7h19V137.363z M71.972,136.811   C69.354,138.89,65.358,140,59.985,140H55v10h-8v-36h12.882c5.581,0,9.646,0.91,12.193,3.076c2.548,2.167,3.822,5.443,3.822,9.932   C75.897,131.498,74.589,134.73,71.972,136.811z M111,144.384c-4,4.022-8.651,6.032-15.03,6.032c-5.339,0-9.847-1.768-13.468-5.305   c-3.623-3.535-5.448-7.998-5.448-13.389s1.84-9.889,5.531-13.494c3.692-3.605,8.143-5.408,13.36-5.408   c5.217,0,9.749,1.716,13.597,5.147l-4.213,6.084c-1.63-1.421-3.13-2.399-4.499-2.938c-1.369-0.536-2.852-0.805-4.445-0.805   c-3.086,0-5.687,1.049-7.801,3.146c-2.114,2.098-3.172,4.862-3.172,8.294s1.015,6.18,3.042,8.242   c2.028,2.063,4.582,3.094,7.39,3.094c2.809,0,5.156-0.537,7.156-1.611V131h8V144.384z M108.833,29C103.311,29,99,24.523,99,19   V4.622L123.212,29H108.833z" fill="#231F20"/></g></svg>