<?xml version="1.0" ?><!DOCTYPE svg  PUBLIC '-//W3C//DTD SVG 1.1//EN'  'http://www.w3.org/Graphics/SVG/1.1/DTD/svg11.dtd'><svg enable-background="new 0 0 43 54" height="54px" id="Layer_1" version="1.1" viewBox="0 0 43 54" width="43px" xml:space="preserve" xmlns="http://www.w3.org/2000/svg" xmlns:xlink="http://www.w3.org/1999/xlink"><g><path d="M34.594,26H32v-4H0v15.5c0,8.836,7.163,16,16,16c7.272,0,13.401-4.856,15.347-11.5h3.247   C39.236,42,43,38.643,43,34S39.236,26,34.594,26z M16,49.5c-6.617,0-12-5.383-12-12V26h23v16h0.116   C25.332,46.393,21.025,49.5,16,49.5z M34.594,38h-2.619C31.979,37.832,32,37.669,32,37.5V30h2.594C36.783,30,39,31.374,39,34   S36.783,38,34.594,38z" fill="#231F20"/><path d="M8.646,18.154c0.088,0.25,0.166,0.474,0.252,0.672C9.234,19.618,9.5,20,9.5,20s0.337-0.413,0.796-1.013   c0.107-0.145,0.227-0.306,0.355-0.48c0.134-0.167,0.312-0.328,0.477-0.497c0.343-0.333,0.625-0.701,1.076-1   c0.205-0.157,0.392-0.321,0.585-0.479c0.222-0.144,0.452-0.293,0.688-0.446c0.116-0.072,0.219-0.154,0.323-0.234l0.386-0.223   c0.27-0.141,0.484-0.319,0.75-0.475c0.574-0.318,1.09-0.665,1.725-1.044c0.576-0.376,1.254-0.811,1.874-1.26   c0.67-0.491,1.303-0.972,1.959-1.571c0.634-0.551,1.263-1.247,1.817-1.912c0.272-0.362,0.544-0.738,0.776-1.114   c0.116-0.187,0.232-0.372,0.347-0.554c0.103-0.204,0.201-0.406,0.287-0.611c0.174-0.409,0.349-0.791,0.482-1.172   c0.096-0.419,0.189-0.811,0.251-1.19c0.162-0.715,0.11-1.522,0.048-2.136c-0.047-0.307-0.052-0.603-0.144-0.825   c-0.091-0.22-0.172-0.422-0.26-0.605C23.76,0.425,23.5,0,23.5,0s-0.331,0.371-0.794,1.029c-0.118,0.165-0.233,0.348-0.362,0.547   c-0.139,0.196-0.317,0.328-0.482,0.492c-0.347,0.315-0.6,0.603-1.057,0.926c-0.207,0.156-0.391,0.322-0.585,0.481   c-0.24,0.143-0.46,0.3-0.688,0.448c-0.115,0.073-0.221,0.152-0.324,0.233L18.821,4.38c-0.269,0.142-0.486,0.317-0.751,0.475   c-0.578,0.314-1.088,0.667-1.727,1.042c-0.577,0.375-1.257,0.806-1.878,1.255c-0.671,0.49-1.305,0.968-1.963,1.566   c-0.637,0.547-1.261,1.25-1.819,1.91c-0.271,0.364-0.547,0.737-0.777,1.113c-0.117,0.187-0.232,0.372-0.347,0.555   c-0.102,0.205-0.203,0.405-0.289,0.61c-0.174,0.409-0.347,0.792-0.482,1.173C8.692,14.5,8.6,14.894,8.537,15.272   c-0.168,0.739-0.087,1.465-0.028,2.062C8.557,17.636,8.56,17.903,8.646,18.154z" fill="#231F20"/></g></svg>