<?xml version="1.0" ?><!DOCTYPE svg  PUBLIC '-//W3C//DTD SVG 1.1//EN'  'http://www.w3.org/Graphics/SVG/1.1/DTD/svg11.dtd'><svg enable-background="new 0 0 72 58" height="58px" id="Layer_1" version="1.1" viewBox="0 0 72 58" width="72px" xml:space="preserve" xmlns="http://www.w3.org/2000/svg" xmlns:xlink="http://www.w3.org/1999/xlink"><g><path d="M68.367,37h-6.071h-9.703h-6.071C44.368,37,43,38.879,43,41.033v1.561C43,44.748,44.368,47,46.521,47h6.071   h9.703h6.071C70.521,47,72,44.748,72,42.594v-1.561C72,38.879,70.521,37,68.367,37z" fill="#231F20"/><circle cx="31.5" cy="13.5" fill="#231F20" r="13.5"/><path d="M46.521,52C41.822,52,38,47.78,38,42.594v-1.561C38,35.968,41.743,32,46.521,32h0.836   c-0.445-0.347-0.896-0.682-1.353-1h-29.01C9.182,36.436,3.059,46.132,0.048,58h62.904c-0.525-2.071-1.151-4.072-1.858-6H46.521z" fill="#231F20"/></g></svg>