<?xml version="1.0" ?><!DOCTYPE svg  PUBLIC '-//W3C//DTD SVG 1.1//EN'  'http://www.w3.org/Graphics/SVG/1.1/DTD/svg11.dtd'><svg enable-background="new 0 0 47 52" height="52px" id="Layer_1" version="1.1" viewBox="0 0 47 52" width="47px" xml:space="preserve" xmlns="http://www.w3.org/2000/svg" xmlns:xlink="http://www.w3.org/1999/xlink"><path d="M44.594,11H31.022c1.993-1,3.306-3.26,3.349-5.386c0.045-2.27-1.353-4.148-3.738-5.084  c-1.289-0.506-2.496-0.552-3.588-0.172c-1.571,0.546-2.575,1.894-3.218,3.434c-0.643-1.54-1.646-2.874-3.218-3.42  c-1.092-0.38-2.3-0.313-3.588,0.192c-2.386,0.937-3.783,2.781-3.738,5.05C13.325,7.739,14.639,10,16.632,11H2.295  C0.696,11,0,12.908,0,14.6v5.105C0,21.396,0.696,23,2.295,23H2v23.014C2,49.084,4.968,52,8.037,52h31.262  C42.368,52,45,49.084,45,46.014V23.242c1-0.072,2-1.88,2-3.538V14.6C47,12.908,46.19,11,44.594,11z M28.148,3.551  c0.313-0.108,0.735-0.06,1.256,0.144c1.081,0.424,1.621,1.072,1.604,1.923c-0.021,1.104-0.989,2.549-2.795,3.177  c-0.653,0.227-1.365,0.321-2.103,0.281C26.29,6.683,26.976,3.959,28.148,3.551z M18.25,3.695c0.521-0.204,0.942-0.252,1.256-0.144  c1.173,0.408,1.858,3.131,2.038,5.525c-0.737,0.041-1.449-0.054-2.103-0.281c-1.806-0.628-2.773-2.074-2.795-3.177  C16.629,4.767,17.169,4.119,18.25,3.695z M41,23v10H26V23H41z M22,23v10H6V23H22z M8.037,47C7.198,47,6,46.854,6,46.014V37h16v10  H8.037z M39.299,47H26V37h15v9.014C41,46.854,40.138,47,39.299,47z" fill="#231F20"/></svg>