<?xml version="1.0" ?><!DOCTYPE svg  PUBLIC '-//W3C//DTD SVG 1.1//EN'  'http://www.w3.org/Graphics/SVG/1.1/DTD/svg11.dtd'><svg enable-background="new 0 0 44 43" height="43px" id="Layer_1" version="1.1" viewBox="0 0 44 43" width="44px" xml:space="preserve" xmlns="http://www.w3.org/2000/svg" xmlns:xlink="http://www.w3.org/1999/xlink"><path d="M30.256,21.173c1.835-5.235,1.049-12.14-3.431-16.62C20.771-1.5,10.984-1.527,4.932,4.526  c-6.054,6.053-6.094,15.908-0.041,21.961c4.615,4.615,11.168,5.945,17.026,3.318l2.902,2.902l0.109,0.109l4.084-0.714l-0.018,4.271  l4.244,0.008l-0.532,4.213l2.111,2.111c0.006,0.006,0.006,0.006,0.01,0.01l0.157-0.156c0.741,0.673,0.504,0.366,0.615,0.366  l7.272,0.22c0.6,0,1.126-0.443,1.127-1.044l-0.283-7.333c0-0.112,0.327,0.146-0.346-0.596l-0.058,0.059  c-0.003-0.004-0.003-0.003-0.006-0.007L30.256,21.173z M13.483,13.702c-1.563,1.563-4.095,1.563-5.657,0s-1.563-4.094,0-5.657  c1.563-1.563,4.095-1.563,5.657,0S15.046,12.14,13.483,13.702z" fill="#231F20"/></svg>