<?xml version="1.0" ?><!DOCTYPE svg  PUBLIC '-//W3C//DTD SVG 1.1//EN'  'http://www.w3.org/Graphics/SVG/1.1/DTD/svg11.dtd'><svg enable-background="new 0 0 49 49" height="49px" id="Layer_1" version="1.1" viewBox="0 0 49 49" width="49px" xml:space="preserve" xmlns="http://www.w3.org/2000/svg" xmlns:xlink="http://www.w3.org/1999/xlink"><g><path d="M26.5,0c-0.168,0-0.333,0.009-0.5,0.013V24h22.944C48.978,23.504,49,23.004,49,22.5   C49,10.074,38.927,0,26.5,0z" fill="#231F20"/><path d="M44.944,28H22V4.013C22.167,4.009,22.332,4,22.5,4C10.073,4,0,14.074,0,26.5C0,38.926,10.073,49,22.5,49   c12.38,0,22.42-8.51,22.496-20.859C44.989,28.117,44.97,27.618,44.944,28z" fill="#231F20"/><path d="M44.996,28.141C44.999,28.146,45,28.116,45,28C45,28.047,44.997,28.093,44.996,28.141z" fill="#231F20"/></g></svg>