<?xml version="1.0" ?><!DOCTYPE svg  PUBLIC '-//W3C//DTD SVG 1.1//EN'  'http://www.w3.org/Graphics/SVG/1.1/DTD/svg11.dtd'><svg enable-background="new 0 0 34 49" height="49px" id="Layer_1" version="1.1" viewBox="0 0 34 49" width="34px" xml:space="preserve" xmlns="http://www.w3.org/2000/svg" xmlns:xlink="http://www.w3.org/1999/xlink"><g><path d="M13.245,47.175c0.725,1.835,2.129,2.204,3.755,2.204s3.03-0.369,3.756-2.204   c1.863-0.86,3.384-2.339,4.297-4.175H8.947C9.86,44.836,11.381,46.314,13.245,47.175z" fill="#231F20"/><path d="M34,17c0-9.389-7.611-17-17-17S0,7.611,0,17c0,6.243,3.376,11.686,8.392,14.641   c0.225,0.498,0.395,0.994,0.499,1.477C8.325,34.295,8,35.607,8,37c0,1.439,0.346,2.794,0.947,4h16.106   C25.654,39.794,26,38.439,26,37c0-1.393-0.325-2.705-0.891-3.883c0.104-0.482,0.274-0.979,0.499-1.477   C30.624,28.686,34,23.243,34,17z" fill="#231F20"/></g></svg>